Coordinates
version=1
nRows=35
nColumns=38
inDegrees=no

Units are S.I. units (second, meters, Newtons, ...)
If the header above contains a line with 'inDegrees', this indicates whether rotational values are in degrees (yes) or radians (no).

endheader
time	pelvis_tilt	pelvis_list	pelvis_rotation	pelvis_tx	pelvis_ty	pelvis_tz	hip_flexion_r	hip_adduction_r	hip_rotation_r	knee_angle_r	ankle_angle_r	subtalar_angle_r	mtp_angle_r	hip_flexion_l	hip_adduction_l	hip_rotation_l	knee_angle_l	ankle_angle_l	subtalar_angle_l	mtp_angle_l	lumbar_extension	lumbar_bending	lumbar_rotation	arm_flex_r	arm_add_r	arm_rot_r	elbow_flex_r	pro_sup_r	wrist_flex_r	wrist_dev_r	arm_flex_l	arm_add_l	arm_rot_l	elbow_flex_l	pro_sup_l	wrist_flex_l	wrist_dev_l
15	0.190856	1.30392	1.29755	0.680779	0.686717	0.966918	0.416682	0.0406863	-0.264136	0.268106	0.0164369	0	0	0.273898	-0.104419	-0.25092	0.575432	0.217425	0	0	-0.17828	0.0965266	0.160848	-0.214645	-0.421997	0.181303	1.4212	1.54373	0	0	-0.157357	-0.35677	0.293389	1.25345	1.44634	0	0
15.01	0.180244	1.30501	1.30921	0.68091	0.687597	0.967268	0.415166	0.0375071	-0.263671	0.267845	0.0170243	0	0	0.279049	-0.100861	-0.252868	0.556394	0.216469	0	0	-0.18013	0.0932914	0.159518	-0.216697	-0.418645	0.178322	1.42011	1.5483	0	0	-0.157827	-0.356637	0.292471	1.251	1.44851	0	0
15.02	0.169598	1.30564	1.32075	0.680999	0.688419	0.967556	0.414188	0.0344997	-0.262908	0.267578	0.0174276	0	0	0.284324	-0.097379	-0.255646	0.535952	0.213779	0	0	-0.181557	0.0902224	0.158365	-0.218838	-0.415344	0.175018	1.41917	1.55263	0	0	-0.158385	-0.356519	0.291984	1.24874	1.45162	0	0
15.03	0.159271	1.30585	1.33184	0.681048	0.6892	0.967788	0.413601	0.0316906	-0.262199	0.26723	0.0178423	0	0	0.289611	-0.0941342	-0.259013	0.514504	0.209225	0	0	-0.182582	0.0873523	0.157238	-0.220872	-0.412269	0.172123	1.4183	1.55628	0	0	-0.159332	-0.356354	0.291388	1.24702	1.45489	0	0
15.04	0.149764	1.30544	1.34222	0.681063	0.689958	0.967937	0.413691	0.029077	-0.262264	0.267029	0.0184847	0	0	0.295223	-0.0911469	-0.262522	0.492354	0.205244	0	0	-0.182954	0.0848391	0.15592	-0.222889	-0.409395	0.169441	1.41753	1.55965	0	0	-0.160675	-0.355912	0.289828	1.24625	1.45683	0	0
15.05	0.140399	1.30467	1.35239	0.681039	0.690677	0.968038	0.41426	0.0264439	-0.262337	0.267101	0.0191313	0	0	0.300597	-0.0880799	-0.265993	0.469011	0.201258	0	0	-0.182954	0.0824567	0.154459	-0.224705	-0.406942	0.16708	1.41685	1.56269	0	0	-0.162261	-0.355811	0.288776	1.24572	1.45944	0	0
15.06	0.132456	1.30366	1.36101	0.680956	0.691385	0.9681	0.414953	0.0241491	-0.262351	0.267077	0.0195736	0	0	0.306159	-0.085363	-0.269757	0.445796	0.197234	0	0	-0.182653	0.0805636	0.153021	-0.226235	-0.405801	0.167197	1.41695	1.55167	0	0	-0.16405	-0.355855	0.288619	1.24588	1.45323	0	0
15.07	0.121885	1.30264	1.37146	0.680867	0.692149	0.968161	0.415904	0.0212587	-0.261796	0.26746	0.0205168	0	0	0.310596	-0.0817538	-0.274866	0.420157	0.191749	0	0	-0.182084	0.0777627	0.151946	-0.227694	-0.403813	0.165659	1.4157	1.55534	0	0	-0.16645	-0.355115	0.286137	1.24568	1.4552	0	0
15.08	0.111922	1.3014	1.38112	0.680736	0.692917	0.968178	0.416976	0.0185988	-0.261407	0.267734	0.0215372	0	0	0.314518	-0.0779941	-0.279344	0.393655	0.185966	0	0	-0.181147	0.0751681	0.150909	-0.229115	-0.402072	0.164217	1.41416	1.5588	0	0	-0.169	-0.354262	0.283665	1.24532	1.4572	0	0
15.09	0.102435	1.29986	1.39017	0.680541	0.693664	0.968137	0.418326	0.0160987	-0.261058	0.267948	0.0225543	0	0	0.317994	-0.0739153	-0.282602	0.366284	0.179718	0	0	-0.179705	0.072811	0.149982	-0.230472	-0.401024	0.163337	1.41277	1.56186	0	0	-0.171465	-0.353314	0.281621	1.24453	1.45943	0	0
15.1	0.0938731	1.29801	1.39792	0.680288	0.69442	0.968019	0.420008	0.0139138	-0.260531	0.268285	0.0236358	0	0	0.321071	-0.0697167	-0.285253	0.338393	0.173422	0	0	-0.177672	0.0708538	0.14936	-0.231788	-0.400959	0.163306	1.41159	1.5645	0	0	-0.174023	-0.352122	0.279809	1.24333	1.46182	0	0
15.11	0.0861713	1.2961	1.40429	0.680003	0.695248	0.967865	0.421857	0.011965	-0.259805	0.269085	0.025032	0	0	0.323245	-0.065513	-0.287453	0.309774	0.167175	0	0	-0.175164	0.0692461	0.14914	-0.232958	-0.401665	0.1644	1.41031	1.56676	0	0	-0.176727	-0.350714	0.278345	1.24143	1.46369	0	0
15.12	0.079348	1.29425	1.40914	0.679688	0.696139	0.967685	0.423798	0.0102894	-0.258935	0.270418	0.0267291	0	0	0.324424	-0.0612625	-0.289244	0.28053	0.161174	0	0	-0.172392	0.0679752	0.149497	-0.23411	-0.40286	0.166285	1.40882	1.56741	0	0	-0.179537	-0.349136	0.277208	1.23959	1.46526	0	0
15.13	0.0740417	1.29237	1.41187	0.679347	0.697059	0.967454	0.425879	0.00914804	-0.25808	0.272012	0.0285269	0	0	0.324453	-0.0571939	-0.290155	0.250646	0.154829	0	0	-0.169292	0.0672601	0.150445	-0.235325	-0.4043	0.168732	1.40716	1.56602	0	0	-0.182502	-0.347383	0.276289	1.23802	1.46699	0	0
15.14	0.0710753	1.29059	1.41194	0.679003	0.698046	0.967197	0.427699	0.00881294	-0.257124	0.273672	0.0301203	0	0	0.32289	-0.0535921	-0.290073	0.219594	0.146839	0	0	-0.165945	0.0672757	0.151762	-0.236669	-0.40591	0.170639	1.40549	1.56504	0	0	-0.185633	-0.345487	0.275522	1.23607	1.46869	0	0
15.15	0.0701487	1.28889	1.4095	0.678657	0.699081	0.966904	0.42925	0.00926903	-0.255487	0.275087	0.0315917	0	0	0.319763	-0.0502209	-0.287993	0.186956	0.135267	0	0	-0.162369	0.0679648	0.153365	-0.237867	-0.408226	0.173402	1.40379	1.56216	0	0	-0.189048	-0.343214	0.274357	1.23357	1.47125	0	0
15.16	0.0738952	1.2879	1.40208	0.678329	0.700226	0.966613	0.429455	0.0112186	-0.253565	0.27587	0.0329489	0	0	0.314549	-0.0479846	-0.284256	0.15363	0.121286	0	0	-0.159293	0.0700102	0.15547	-0.239355	-0.410883	0.175435	1.40269	1.5608	0	0	-0.19253	-0.340775	0.273746	1.23063	1.47208	0	0
15.17	0.0814542	1.28678	1.39059	0.678083	0.701474	0.966266	0.429464	0.0144907	-0.25164	0.276674	0.0343498	0	0	0.30845	-0.0471439	-0.280134	0.120715	0.10497	0	0	-0.155635	0.0731836	0.157743	-0.240896	-0.413384	0.177682	1.40118	1.56116	0	0	-0.196548	-0.338586	0.273728	1.22758	1.47128	0	0
15.18	0.0922213	1.28558	1.37616	0.677839	0.702737	0.965861	0.42923	0.0187126	-0.250061	0.277324	0.0357562	0	0	0.30203	-0.0474646	-0.275347	0.0894409	0.0849228	0	0	-0.15182	0.0774694	0.159861	-0.242688	-0.415874	0.179817	1.39989	1.56127	0	0	-0.200783	-0.336549	0.274034	1.22495	1.47104	0	0
15.19	0.105072	1.28433	1.36007	0.677604	0.704028	0.965416	0.428867	0.0234522	-0.249039	0.278106	0.0372419	0	0	0.295747	-0.0488502	-0.269514	0.061269	0.058635	0	0	-0.147742	0.082343	0.161231	-0.244131	-0.418157	0.182262	1.39807	1.56124	0	0	-0.20559	-0.334646	0.273862	1.223	1.47083	0	0
15.2	0.120188	1.2831	1.34193	0.677414	0.705342	0.964919	0.428158	0.0288972	-0.247931	0.27876	0.0386264	0	0	0.289511	-0.0514708	-0.262866	0.037241	0.0253887	0	0	-0.143529	0.087756	0.162046	-0.245196	-0.420276	0.185233	1.39574	1.56059	0	0	-0.211026	-0.332896	0.273146	1.22175	1.47057	0	0
15.21	0.137805	1.28245	1.3215	0.677292	0.706711	0.96445	0.426461	0.0349812	-0.246666	0.279397	0.0402411	0	0	0.282947	-0.0554077	-0.257563	0.0190605	-0.00987449	0	0	-0.13984	0.0935657	0.162315	-0.24579	-0.421897	0.189065	1.39282	1.55901	0	0	-0.216979	-0.331333	0.271921	1.22109	1.47033	0	0
15.22	0.155979	1.28249	1.30063	0.677199	0.708152	0.964062	0.423811	0.0409827	-0.245517	0.280076	0.0421006	0	0	0.276708	-0.0599662	-0.255972	0.00850464	-0.0326386	0	0	-0.136658	0.0990982	0.162093	-0.246187	-0.422862	0.192652	1.38952	1.55788	0	0	-0.223148	-0.329983	0.270495	1.22052	1.47014	0	0
15.23	0.172926	1.28404	1.28106	0.677099	0.709668	0.963873	0.419609	0.0460116	-0.244601	0.280947	0.0441089	0	0	0.269559	-0.0639487	-0.256968	0.00455408	-0.0294742	0	0	-0.134807	0.103504	0.161075	-0.245857	-0.423207	0.1956	1.38568	1.55896	0	0	-0.229512	-0.328881	0.268702	1.22005	1.4699	0	0
15.24	0.187226	1.28691	1.26502	0.676927	0.711156	0.963896	0.414475	0.0492605	-0.244613	0.2824	0.0463817	0	0	0.261592	-0.0662509	-0.255818	0.00405338	-0.012687	0	0	-0.134083	0.106443	0.158861	-0.245123	-0.422481	0.19754	1.38167	1.55835	0	0	-0.235337	-0.328369	0.267331	1.21961	1.46965	0	0
15.25	0.201318	1.29144	1.24926	0.676797	0.712722	0.964158	0.407336	0.0518394	-0.244225	0.28343	0.0485336	0	0	0.251633	-0.0677441	-0.253864	0.00279922	-0.000597113	0	0	-0.134986	0.108399	0.156113	-0.243667	-0.420778	0.198889	1.37681	1.56036	0	0	-0.241365	-0.327998	0.265109	1.2198	1.46957	0	0
15.26	0.214116	1.29695	1.23459	0.67677	0.714357	0.9646	0.39908	0.0538187	-0.242935	0.284132	0.0504585	0	0	0.240504	-0.0687228	-0.252132	0	0.00131144	0	0	-0.136649	0.109207	0.153361	-0.241714	-0.418271	0.20056	1.37085	1.56281	0	0	-0.247453	-0.327995	0.262457	1.22059	1.47005	0	0
15.27	0.226051	1.30279	1.22151	0.676753	0.715975	0.96515	0.390154	0.0552556	-0.241519	0.283931	0.0519264	0	0	0.229821	-0.0695586	-0.251169	0	-0.00317645	0	0	-0.138465	0.109416	0.149849	-0.239371	-0.414971	0.202387	1.364	1.56509	0	0	-0.253445	-0.328318	0.259625	1.22183	1.47052	0	0
15.28	0.238092	1.30815	1.20936	0.676695	0.717556	0.9657	0.381482	0.0564865	-0.241131	0.283258	0.0531854	0	0	0.22025	-0.0705882	-0.25057	0	-0.00852628	0	0	-0.139582	0.109757	0.14578	-0.237176	-0.411396	0.204015	1.357	1.56736	0	0	-0.259156	-0.328885	0.257139	1.22336	1.4706	0	0
15.29	0.249467	1.31276	1.19875	0.676558	0.719086	0.966182	0.373703	0.0573662	-0.241675	0.282731	0.0546311	0	0	0.211546	-0.0714357	-0.2501	0	-0.0108973	0	0	-0.139679	0.110288	0.141377	-0.235543	-0.407706	0.205179	1.35025	1.56959	0	0	-0.264532	-0.329558	0.255059	1.22495	1.47023	0	0
15.3	0.259014	1.31671	1.18996	0.676377	0.720552	0.96656	0.367156	0.0577449	-0.242178	0.2828	0.0562385	0	0	0.203481	-0.0717192	-0.250253	0	-0.0104802	0	0	-0.1388	0.110699	0.137094	-0.234112	-0.404576	0.206827	1.34406	1.5708	0	0	-0.269876	-0.330072	0.252851	1.2267	1.46963	0	0
15.31	0.265817	1.31981	1.1834	0.676148	0.721941	0.966798	0.362417	0.0575303	-0.242521	0.284088	0.0579879	0	0	0.196574	-0.0714597	-0.25127	0	-0.00914132	0	0	-0.136686	0.110998	0.13391	-0.233582	-0.402796	0.21023	1.33954	1.56074	0	0	-0.274289	-0.331325	0.254558	1.2281	1.44972	0	0
15.32	0.273122	1.32412	1.18044	0.676161	0.722649	0.96705	0.35819	0.0601791	-0.235677	0.288035	0.0557083	0	0	0.19738	-0.0723188	-0.25278	0	-0.00635892	0	0	-0.136199	0.110132	0.1296	-0.23419	-0.400705	0.211146	1.33549	1.56325	0	0	-0.276964	-0.332056	0.253136	1.22835	1.45624	0	0
15.33	0.278983	1.32681	1.17455	0.675801	0.724032	0.967125	0.354547	0.0599646	-0.23552	0.290191	0.0584504	0	0	0.192595	-0.0722227	-0.25354	0	-0.00540902	0	0	-0.133647	0.110618	0.127602	-0.234789	-0.399707	0.211562	1.33242	1.56712	0	0	-0.281272	-0.331413	0.250722	1.22852	1.46556	0	0
15.34	0.284951	1.32932	1.16816	0.67542	0.725426	0.96714	0.3514	0.0597895	-0.236113	0.293031	0.0616459	0	0	0.188061	-0.0722978	-0.254259	0	-0.0041689	0	0	-0.13084	0.11136	0.12678	-0.236043	-0.399675	0.212502	1.33042	1.56621	0	0	-0.285068	-0.331094	0.2505	1.22936	1.46198	0	0
